
Genre:Action | Adventure | Crime | Thriller
Language: English
IMDB:http://www.imdb.com/title/tt0985694/
Source Video:Relizlab.Thx
Source Audio:DOEBOY/LKRG.Thx

General
Complete name :Machete.2010.V2.Cam.XviD.Feel-Free.avi
Format : AVI
Format/Info : Audio Video Interleave
File size : 1.05 GiB
Duration : 1h 36mn
Overall bit rate : 1 569 Kbps
Video #0
Codec ID : XVID
Codec ID/Hint : XviD
Duration : 1h 36mn
Bit rate : 1 303 Kbps
Width : 652 pixels
Height : 352 pixels
Display aspect ratio : 1.852
Frame rate : 25.000 fps
Resolution : 24 bits
Colorimetry : 4:2:0
Scan type : Progressive
Bits/(Pixel*Frame) : 0.227
Stream size : 896 MiB (83%)
Writing library : XviD 1.2.1 (UTC 2008-12-04)
Audio #1
ID : 1
Format : MPEG Audio
Format version : Version 1
Format profile : Layer 3
Codec ID : 55
Codec ID/Hint : MP3
Duration : 1h 36mn
Bit rate mode : Constant
Bit rate : 256 Kbps
Channel(s) : 2 channels
Sampling rate : 48.0 KHz
Resolution : 16 bits
Video delay : 5ms
Stream size : 176 MiB (16%)
Alignment : Split accross interleaves
Interleave, duration : 40 ms (1.00 video frame)
Interleave, preload duration : 500 ms

Plot
After being betrayed by the organization who hired him, an ex-Federale launches a brutal rampage of revenge against his former boss
